<svg id="Layer_1" data-name="Layer 1" xmlns="http://www.w3.org/2000/svg" viewBox="0 0 1692.55 385.08"><path d="M116.69,356.77V554.68c0,7,0,7-6.87,8-16,2.22-32,4.36-47.95,6.75-4.1.61-5.63.17-5.62-4.71q.24-186.69,0-373.37c0-4,1.07-4.92,4.93-4.87q24,.34,48,0c3.65-.05,5.11,1.18,6.3,4.5q36.88,102.7,74,205.32a6.37,6.37,0,0,0,2.2,3.36v-5.18c0-67.31.08-134.63-.15-201.94,0-5.3,1.55-6.17,6.34-6.08q24.24.45,48.49,0c4.47-.08,5.74,1,5.73,5.63Q251.89,346,252,499.94c0,13.83-.1,27.66.07,41.49,0,3.43-.59,4.8-4.49,5.17q-28.83,2.71-57.59,6.28c-3.31.4-4.34-.58-5.3-3.33q-32.51-93.69-65.13-187.34c-.64-1.85-1.37-3.68-2.06-5.52Z" transform="translate(-56.25 -184.52)" style="fill:#e40914"/><path d="M1748.8,184.65c-11,25.56-21.7,50.41-32.41,75.25q-22,51-44.09,102a10,10,0,0,0-.19,8.42q37.5,96.36,74.79,192.81c.54,1.37,1,2.76,1.84,4.88l-28.53-3.81c-11.88-1.58-23.74-3.26-35.64-4.65-3.38-.4-5.1-1.69-6.36-5q-20.09-52.33-40.5-104.54c-.42-1.08-.86-2.15-1.61-4-3.68,8.46-7.1,16.29-10.48,24.12-10.67,24.71-21.39,49.39-31.91,74.15-1.33,3.12-2.62,4-6.19,3.61-17.68-2.08-35.42-3.71-53.14-5.52-1.8-.18-3.59-.53-5.87-.87,6.62-15.37,13.09-30.42,19.58-45.47q27.42-63.62,54.94-127.19a10,10,0,0,0,0-8.41q-33.33-85.68-66.48-171.44c-.47-1.22-.89-2.46-1.57-4.36h8.65c17.33,0,34.66.13,52-.11,3.67,0,5.08,1.28,6.31,4.49,11.73,30.54,23.63,61,35.48,91.51.48,1.24,1,2.46,1.78,4.35,5-11.47,9.7-22.38,14.42-33.31q13.62-31.58,27.23-63.14c.83-1.92,1.24-3.89,4.31-3.87C1706.13,184.72,1727.12,184.65,1748.8,184.65Z" transform="translate(-56.25 -184.52)" style="fill:#e40914"/><path d="M309.51,363.14c0-57.14.07-114.28-.12-171.42,0-4.61,1.34-5.3,5.51-5.29q78.23.23,156.45,0c4.36,0,5.5,1,5.43,5.4q-.45,25,0,50c.06,4.09-1.25,4.81-5,4.8-32.32-.14-64.64,0-97-.18-4,0-4.94,1.05-4.91,4.94q.27,35.23,0,70.47c0,4.08.93,5.36,5.18,5.29,23.48-.38,47-.35,70.45-.71,4.12-.06,5.69.59,5.59,5.28-.35,16.32-.26,32.65-.05,49,.05,3.95-.71,5.41-5.09,5.4-23.81-.06-47.61.34-71.41.31-3.8,0-4.69,1-4.67,4.69q.25,40,0,80c0,3.66.71,4.84,4.67,4.55,32.52-2.37,65.07-4.44,97.59-6.82,3.57-.26,4.6.38,4.57,4q-.24,25.74,0,51.47c0,3.45-1.23,4-4.27,4.17-53,3-106,6.8-158.81,11.87-3.8.37-4.22-.92-4.22-4.23Q309.59,449.6,309.51,363.14Z" transform="translate(-56.25 -184.52)" style="fill:#e40914"/><path d="M1004.7,348.41q0-79.34-.09-158.69c0-3.9.66-5.2,5-5.19q79.22.27,158.43,0c3.57,0,4.79.61,4.73,4.47q-.37,25.13,0,50.26c0,3.65-.82,4.61-4.6,4.59-32.82-.16-65.64,0-98.46-.18-3.87,0-5,.9-5,4.83q.3,33.25,0,66.53c0,4.07,1.31,4.76,5,4.73,24-.15,48,0,72-.18,4.07,0,4.89,1.19,4.85,4.93q-.31,24.65,0,49.28c.06,3.81-1.16,4.63-4.8,4.61-23.65-.15-47.31.05-71-.19-4.64,0-6.14.86-6.11,5.81.23,41.23.07,82.47.22,123.7,0,4.06-.59,5.6-5.28,5.51-16.82-.35-33.66-.27-50.48,0-3.86.06-4.58-1.08-4.57-4.65Q1004.8,428.5,1004.7,348.41Z" transform="translate(-56.25 -184.52)" style="fill:#e40914"/><path d="M835,376.69c0-42.95-.08-85.9.11-128.85,0-4.33-1.15-5.29-5.49-5.23-17.82.25-35.65,0-53.48.17-3.15,0-4.25-.67-4.22-3.95q.27-25.19,0-50.37c0-3.28,1.07-4,4.22-3.94q89,.12,177.94,0c3,0,4.34.47,4.3,3.88q-.28,25.18,0,50.37c0,3.19-.9,4-4.17,4-17.49-.16-35-.08-52.48-.07-6.42,0-6.42,0-6.42,6.46q0,127.17.11,254.32c0,4.57-1,5.81-5.87,5.86-16.47.14-32.94.76-49.38,1.61-4.41.23-5.25-1-5.24-4.94C835.06,462.92,835,419.81,835,376.69Z" transform="translate(-56.25 -184.52)" style="fill:#e40914"/><path d="M1210.85,352.45q0-81.19-.1-162.41c0-4.25.78-5.61,5.36-5.52,16.65.32,33.31.28,50,0,4.19-.07,5.17,1,5.17,5.18q-.2,133.68-.1,267.35c0,6.65,0,6.66,6.49,7,30.89,1.77,61.78,3.61,92.68,5.22,3.64.19,4.28,1.42,4.25,4.72-.16,16.48-.23,33,0,49.47.07,4.31-.81,5.58-5.41,5.3q-55.05-3.33-110.14-6.15c-14.28-.75-28.59-1.23-42.89-1.57-4.19-.1-5.45-1.3-5.44-5.73C1210.91,461.06,1210.85,406.75,1210.85,352.45Z" transform="translate(-56.25 -184.52)" style="fill:#e40914"/><path d="M1483.81,361.63q0,85.47.1,170.92c0,4.2-.81,5.17-5.17,4.72-17-1.76-34.14-3.15-51.23-4.35-3.49-.24-3.9-1.54-3.9-4.5q.09-169.66,0-339.34c0-3.93,1.19-4.55,4.74-4.51,17,.18,34,.21,51,0,3.78-.05,4.63,1,4.62,4.67Q1483.72,275.43,1483.81,361.63Z" transform="translate(-56.25 -184.52)" style="fill:#e40914"/><path d="M521,187.44C531.56,210,541.82,232,552.11,253.9Q573.23,299,594.44,344a8.2,8.2,0,0,1,.18,7.44q-36,85.1-71.81,170.27c-.51,1.22-1,2.44-1.76,4.32l27.39-3.37c11.4-1.39,22.8-2.88,34.22-4.11,3.24-.35,4.89-1.49,6.1-4.38,12.86-30.82,25.9-61.57,38.89-92.33.41-1,.83-1.9,1.54-3.55,3.54,7.48,6.82,14.38,10.07,21.31,10.24,21.81,20.53,43.61,30.63,65.48,1.28,2.76,3.73,10.52,7.16,10.15,17-1.83,38.43-1.28,55.44-2.88,1.73-.16,1-3.63,3.23-3.93-6.35-13.58-15.79-32.67-22-46q-26.34-56.19-52.76-112.33a8.18,8.18,0,0,1,0-7.43Q693,267,724.79,191.29c.45-1.07.85-2.17,1.5-3.85H718c-16.64,0-33.28.12-49.92-.09-3.52,0-4.88,1.12-6.06,4-11.26,27-22.69,53.89-34.07,80.82-.46,1.09-1,2.17-1.7,3.84-4.77-10.13-9.32-19.77-13.85-29.42q-13.08-27.88-26.15-55.76c-.79-1.7-1.19-3.44-4.13-3.42C562,187.5,541.81,187.44,521,187.44Z" transform="translate(-56.25 -184.52)" style="fill:#e40914"/></svg>